<?xml version="1.0" encoding="iso-8859-1"?>
<!-- Generator: Adobe Illustrator 19.0.0, SVG Export Plug-In . SVG Version: 6.00 Build 0)  -->
<svg version="1.1" id="Capa_1" xmlns="http://www.w3.org/2000/svg" xmlns:xlink="http://www.w3.org/1999/xlink" x="0px" y="0px"
	 viewBox="0 0 511.999 511.999" style="enable-background:new 0 0 511.999 511.999;" xml:space="preserve">
<g>
	<path style="fill:#46505A;" d="M189.022,326.624L189.022,326.624h-30.993c0,0-87.329,59.642-74.657,177.717h44.697l0,0l7.5-7.028
		l7.5,7.028l0,0h45.954l0,0L256,410.186L189.022,326.624z"/>
	<path style="fill:#46505A;" d="M353.971,326.624h-30.993l0,0L256,410.186l66.978,94.155l0,0h45.954l7.5-9.029l7.5,9.029h44.697
		C441.299,386.266,353.971,326.624,353.971,326.624z"/>
</g>
<polygon style="fill:#EEECED;" points="189.022,326.624 189.022,504.341 230,504.341 256,482.841 282,504.341 322.978,504.341 
	322.978,326.624 "/>
<polygon style="fill:#BB3649;" points="282,504.341 273.747,431.554 238.253,431.554 230,504.341 "/>
<path style="fill:#924436;" d="M256,7.341c-112.882,0-205.943,83.199-216.497,189.231l23.14,50.228h393l16.854-50.227
	C461.943,90.54,368.882,7.341,256,7.341z"/>
<path style="fill:#7D3A2E;" d="M221.276,10.019C124.542,25.022,48.952,101.64,39.503,196.572l19.318,41.931
	C70.328,139.184,133.229,54.598,221.276,10.019z"/>
<path style="fill:#D55C64;" d="M279.074,418.099l-5.503-38.026H238.53l-5.605,38.026c-1.435,5.172,0.741,10.667,5.327,13.455
	l11.518,7.001c3.827,2.326,8.632,2.326,12.459,0l11.518-7.001C278.333,428.766,280.509,423.27,279.074,418.099z"/>
<path style="fill:#FBC4AC;" d="M458.69,250.312l-12.777-21.754l-0.175,0.18l-1.596-0.63c0,0-58.866-14.857-58.866-83.268
	c0,0-54.553,14-129.276,14c-74.724,0-129.276-14-129.276-14c0,68.411-58.866,83.268-58.866,83.268l-1.605,0.62l-0.166-0.171
	L53.31,250.312l20.694,19.759v-0.001C97.844,344.626,170.298,398.851,256,398.851c85.705,0,158.157-54.23,181.992-128.791
	l0.004,0.012L458.69,250.312z"/>
<path style="fill:#C36E5C;" d="M256,291.195c47.236,26.973,62.937,3.663,62.937,3.663c-25.974-3.996,0-63.936-62.937-46.748
	c-62.937-17.188-36.963,42.752-62.937,46.748C193.063,294.858,208.764,318.167,256,291.195z"/>
<g>
	<path style="fill:#E3B098;" d="M447.529,185.842c1.306,21.804-1.623,42.717-1.623,42.717l0,0
		c-0.965,14.355-3.677,28.252-7.917,41.511c2.01,0.292,4.063,0.452,6.153,0.452c23.424,0,42.414-18.989,42.414-42.413
		C486.556,205.826,469.368,187.569,447.529,185.842z"/>
	<path style="fill:#E3B098;" d="M104.657,240.183v0.002c-2.935-9.18-5.363-18.572-7.262-28.143
		c-14.751,12.334-29.536,16.068-29.536,16.068l-1.605,0.62l-0.166-0.171l0.007-0.002c-0.007-0.051-2.927-20.937-1.623-42.714
		c-21.839,1.727-39.027,19.984-39.027,42.267c0,23.424,18.989,42.413,42.414,42.413c2.088,0,4.139-0.159,6.146-0.451v-0.001
		c22.555,70.539,88.63,122.869,168.267,128.304C176.805,365.714,126.615,308.855,104.657,240.183z"/>
</g>
<path d="M320.077,287.604c-4.201-0.646-5.85-4.509-8.673-15.787c-2.557-10.213-5.738-22.924-17.319-29.7
	c-9.069-5.308-21.541-5.839-38.085-1.606c-16.543-4.23-29.016-3.702-38.085,1.606c-11.581,6.776-14.763,19.487-17.319,29.7
	c-2.823,11.278-4.473,15.142-8.673,15.787c-2.538,0.391-4.7,2.053-5.73,4.405c-1.03,2.353-0.785,5.068,0.65,7.198
	c0.52,0.771,8.884,12.665,29.12,12.665c10.175,0,23.348-3.006,40.037-11.947c16.692,8.943,29.861,11.948,40.037,11.947
	c20.232-0.002,28.601-11.895,29.12-12.665c1.435-2.13,1.68-4.846,0.65-7.198C324.777,289.656,322.615,287.994,320.077,287.604z
	 M259.718,284.841c-2.29-1.308-5.149-1.307-7.438,0c-23.697,13.532-37.81,13.272-45.463,10.695c4.686-5.52,6.635-13.308,8.33-20.078
	c2.164-8.642,4.207-16.805,10.344-20.396c5.685-3.323,15.285-3.176,28.533,0.441c1.294,0.354,2.658,0.354,3.952,0
	c13.25-3.619,22.85-3.767,28.533-0.441c6.137,3.592,8.181,11.755,10.344,20.396c1.695,6.771,3.645,14.559,8.331,20.079
	C297.529,298.11,283.414,298.37,259.718,284.841z"/>
<path d="M414.458,63.048c-2.992-2.866-7.741-2.76-10.604,0.232c-2.864,2.992-2.76,7.739,0.232,10.604
	c30.794,29.475,51.312,67.391,58.76,108.09c-3.172-1.28-6.482-2.221-9.891-2.824c-3.69-0.653-7.722-1.403-10.679,1.498
	c-1.549,1.52-2.364,3.636-2.234,5.802c0.302,5.028,0.285,10.053,0.285,15.088c-0.001,0.072-0.002,0.142-0.004,0.214
	c-0.12,6.527-0.506,12.431-0.894,16.951c-3.633-1.505-8.434-3.843-13.575-7.299c-18.177-12.219-29.657-32.07-32.295-53.702
	c-0.001-0.01-0.002-0.02-0.004-0.03c-0.509-4.076-0.779-8.458-0.779-12.666c0-4.844-4.672-8.472-9.362-7.27
	c-0.403,0.103-30.923,7.795-76.869,11.634c-15.315,1.28-32.345,2.132-50.545,2.132c-72.776,0-126.842-13.619-127.412-13.765
	c-4.677-1.193-9.365,2.46-9.365,7.265c0,4.239-0.248,8.492-0.782,12.698c-3.555,27.9-18.57,44.071-31.426,52.987
	c-4.561,3.163-9.31,5.891-14.454,8.021c-0.064-0.743-0.128-1.526-0.191-2.341c-0.002-0.03,0-0.06-0.002-0.09
	c-0.72-9.915-1.012-19.897-0.411-29.827c0.13-2.166-0.685-4.282-2.234-5.802c-2.912-2.856-6.858-2.16-10.495-1.53
	c-0.066,0.011-0.131,0.023-0.197,0.034c-3.408,0.604-6.718,1.545-9.888,2.824c7.944-43.643,30.725-83.662,65.187-113.991
	C153.155,33.817,203.467,15,255.999,15c45.666,0,89.123,13.918,125.671,40.25c3.362,2.423,8.049,1.661,10.469-1.701
	c2.421-3.36,1.66-8.048-1.701-10.469C351.322,14.896,304.832,0,255.999,0c-56.183,0-110.014,20.146-151.578,56.726
	c-40.676,35.798-66.196,84.227-72.086,136.616c-8.9,9.062-14.392,21.446-14.392,34.926c0,27.522,22.391,49.913,49.914,49.913
	c0.297,0,0.596-0.011,0.894-0.017c10.16,28.576,27.413,54.589,50.698,75.894C94.355,385.265,68.422,435.486,75.914,505.3
	c0.409,3.81,3.625,6.699,7.457,6.699h345.256c3.833,0,7.048-2.89,7.457-6.7c7.492-69.814-18.442-120.036-43.537-151.243
	c23.283-21.304,40.535-47.316,50.693-75.892c0.3,0.005,0.602,0.017,0.901,0.017c27.522,0,49.914-22.391,49.914-49.913
	c0-13.479-5.491-25.862-14.39-34.924C474.137,144.259,451.056,98.078,414.458,63.048z M32.944,228.268
	c0-15.151,9.902-28.336,23.706-33.051c-0.056,5.069,0.075,10.135,0.318,15.197c0.848,17.627,2.667,35.45,7.121,52.564
	C46.603,261.093,32.944,246.245,32.944,228.268z M130.89,363.765c15.322,12.016,32.491,21.769,50.631,28.835v104.399h-38.453
	v-61.226c0-4.143-3.358-7.5-7.5-7.5s-7.5,3.357-7.5,7.5v61.226H90.214C85.564,435.932,108.53,391.696,130.89,363.765z
	 M196.521,397.783c2.303,0.695,4.623,1.34,6.954,1.954c7.858,2.068,15.844,3.672,23.893,4.792l-1.803,12.229
	c-0.886,5.737-0.382,11.256,3.168,16.169c0.492,0.681,1.035,1.339,1.612,1.95l-7.044,62.122h-26.78V397.783z M245.884,406.253
	c7.026,0.355,14.236-0.058,21.356-0.058c0.83-0.045,1.661-0.086,2.49-0.141c0,0,2.032,13.902,2.117,14.208
	c0.514,1.849-0.289,4.004-1.996,5.041l-11.519,7.002c-1.44,0.875-3.227,0.876-4.667-0.001c0,0-11.518-7.001-11.519-7.002
	c-1.709-1.039-2.529-3.112-1.994-5.04c0.083-0.299,2.152-14.206,2.152-14.206C243.497,406.135,244.691,406.193,245.884,406.253z
	 M296.603,402.493c6.361-1.271,12.663-2.837,18.874-4.71v99.216h-26.78c0,0-7.044-62.119-7.044-62.123
	c-0.031-0.332,1.406-1.664,1.614-1.951c2.353-3.254,3.71-7.332,3.733-11.396c0.009-1.6-2.335-17.006-2.335-17.006
	C288.663,403.966,292.645,403.284,296.603,402.493z M238.398,496.999l5.985-52.784l1.491,0.906
	c6.161,3.748,14.091,3.747,20.251,0.001l1.492-0.907l5.985,52.784H238.398z M421.785,496.999h-37.854v-61.226
	c0-4.143-3.358-7.5-7.5-7.5s-7.5,3.357-7.5,7.5v61.226h-38.454V392.6c15.854-6.176,30.866-14.342,44.675-24.355
	c0.083-0.061,0.167-0.121,0.25-0.182c1.924-1.4,3.829-2.828,5.705-4.3C403.469,391.694,426.435,435.931,421.785,496.999z
	 M290.688,388.339c-22.88,4.23-46.528,4.227-69.407-0.006c-66.61-12.326-120.891-59.415-140.357-121.127
	c-3.388-10.74-5.682-21.855-6.84-33.056c4.739-1.694,12.767-5.106,21.441-11.114c0.013-0.009,0.027-0.016,0.04-0.024
	c0.028-0.02,0.057-0.041,0.085-0.061c22.718-15.865,36.077-40.927,38.22-68.62c15.098,3.216,47.99,9.24,90.909,11.385
	c0.151,0.007,0.306,0.014,0.458,0.021c10.247,0.494,20.504,0.763,30.764,0.763c10.258,0,20.516-0.258,30.762-0.763
	c0.152-0.007,0.307-0.014,0.459-0.021c42.919-2.146,75.812-8.169,90.909-11.385c2.117,27.346,15.552,52.859,38.224,68.623
	c0.027,0.019,0.054,0.039,0.104,0.071c8.678,6.014,16.711,9.428,21.448,11.122c-0.308,2.986-0.69,5.965-1.159,8.932
	c-1.29,8.154-3.184,16.215-5.666,24.089C411.623,328.907,357.322,376.019,290.688,388.339z M447.904,262.98
	c1.777-6.829,3.168-13.774,4.147-20.812c0.013-0.092,0.023-0.185,0.036-0.277c2.116-15.386,3.443-31.144,3.266-46.673
	c13.803,4.716,23.704,17.899,23.704,33.05C479.055,246.248,465.391,261.097,447.904,262.98z"/>
<path style="fill:#FF8087;" d="M160.98,251.308h-29.563c-4.142,0-7.5,3.358-7.5,7.5c0,4.142,3.358,7.5,7.5,7.5h29.563
	c4.142,0,7.5-3.358,7.5-7.5C168.481,254.666,165.123,251.308,160.98,251.308z"/>
<path d="M146.199,235.906c4.142,0,7.5-3.358,7.5-7.5v-21.993c0-4.142-3.358-7.5-7.5-7.5s-7.5,3.358-7.5,7.5v21.993
	C138.699,232.548,142.057,235.906,146.199,235.906z"/>
<path d="M365.809,235.906c4.142,0,7.5-3.358,7.5-7.5v-21.993c0-4.142-3.358-7.5-7.5-7.5s-7.5,3.358-7.5,7.5v21.993
	C358.309,232.548,361.666,235.906,365.809,235.906z"/>
<path style="fill:#FF8087;" d="M380.582,251.308H351.02c-4.142,0-7.5,3.358-7.5,7.5c0,4.142,3.358,7.5,7.5,7.5h29.563
	c4.142,0,7.5-3.358,7.5-7.5C388.082,254.666,384.724,251.308,380.582,251.308z"/>
<g>
</g>
<g>
</g>
<g>
</g>
<g>
</g>
<g>
</g>
<g>
</g>
<g>
</g>
<g>
</g>
<g>
</g>
<g>
</g>
<g>
</g>
<g>
</g>
<g>
</g>
<g>
</g>
<g>
</g>
</svg>
