<svg id="Capa_1" enable-background="new 0 0 512 512" height="512" viewBox="0 0 512 512" width="512" xmlns="http://www.w3.org/2000/svg"><g><g><g><g><g><path d="m385.73 285.167v127.93h-259.46v-127.93c0-29.61 21.2-54.26 49.25-59.61 3.7-.71 7.53-1.08 11.44-1.08h138.08c3.91 0 7.74.37 11.44 1.08 28.05 5.35 49.25 30 49.25 59.61z" fill="#688d97"/><path d="m385.729 285.167v127.93h-164.14c100.34-43.22 125.25-135.99 131.4-181.81 19.45 10.11 32.74 30.44 32.74 53.88z" fill="#557983"/><path d="m175.52 225.557v187.54h-49.25v-127.93c0-29.61 21.2-54.26 49.25-59.61z" fill="#eff5f6"/><path d="m385.73 285.167v127.93h-49.25v-187.54c5.84 1.12 11.39 3.07 16.51 5.73v.01c19.46 10.1 32.74 30.43 32.74 53.87z" fill="#eff5f6"/><path d="m385.73 285.167v127.93h-49.25v-118.75c9.67-24.09 14.3-46.6 16.51-63.05 19.46 10.1 32.74 30.43 32.74 53.87z" fill="#cbe5e7"/><path d="m309.647 224.473h-51.909-51.908s-1.997 25.653 4.476 55.763c10.963 50.996 83.902 50.996 94.865 0 6.473-30.11 4.476-55.763 4.476-55.763z" fill="#eff5f6"/><path d="m306.167 224.478v5.635c0 27.657-22.511 50.158-50.169 50.158s-50.169-22.501-50.169-50.158v-5.635z" fill="#cbe5e7"/><path d="m280.69 175.267v54.84c0 13.64-11.06 24.69-24.69 24.69s-24.69-11.05-24.69-24.69v-54.84z" fill="#fcd79f"/><path d="m280.69 175.267v39.9c-7.65 2.15-15.7 3.33-24 3.39h-.69c-8.55 0-16.83-1.16-24.69-3.34v-39.95z" fill="#fac574"/><g><g><g><circle cx="171.978" cy="127.601" fill="#fcd79f" r="22.782"/></g><g><circle cx="340.022" cy="127.601" fill="#fcd79f" r="22.782"/></g></g><path d="m177.31 65v60.867c0 43.66 35.55 79.01 79.28 78.69 43.39-.32 78.1-36.29 78.1-79.68v-85.877z" fill="#f9e1c2"/></g></g></g></g><g><path d="m385.75 327.214h38.276v33.426h-38.276z" fill="#5591d6"/><path d="m447.653 385.094h-85.53v-23.068c0-2.761 2.239-5 5-5h75.53c2.761 0 5 2.239 5 5z" fill="#fac574"/><path d="m448.5 318.86v11.02c0 2.76-2.24 5-5 5h-77.23c-2.76 0-5-2.24-5-5v-11.02c0-15.56 12.62-28.17 28.17-28.17h30.89c.81 0 1.6.03 2.39.11 14.44 1.2 25.78 13.31 25.78 28.06z" fill="#fcd79f"/><path d="m448.5 318.86v11.02c0 2.76-2.24 5-5 5h-77.23c-2.76 0-5-2.24-5-5v-6.58c47.49-3.77 59.36-20.31 61.45-32.5 14.44 1.2 25.78 13.31 25.78 28.06z" fill="#fac574"/></g><path d="m197.167 385.094h-132v-36.41c0-2.761 2.239-5 5-5h122c2.761 0 5 2.239 5 5z" fill="#fc9744"/><path d="m197.17 348.688v36.41h-64.97c24.15-10.24 33.22-27.54 36.45-41.41h23.52c2.76 0 5 2.23 5 5z" fill="#fb8627"/><g><path d="m25.5 393.81h461v105.38h-461z" fill="#fcd79f"/><path d="m25.5 393.81h461v45.73h-461z" fill="#fbcc85"/><path d="m486.5 393.808v105.38h-134.66c75.81-26.04 92.24-79.52 95.68-105.38z" fill="#fbcc85"/><path d="m504.5 391.868v23.67c0 5.52-4.48 10-10 10h-477c-5.52 0-10-4.48-10-10v-23.67c0-5.52 4.48-10 10-10h477c5.52 0 10 4.48 10 10z" fill="#5591d6"/><path d="m504.5 391.868v23.67c0 5.52-4.48 10-10 10h-61.4c20.42-12.74 29.36-28.96 32.79-43.67h28.61c5.52 0 10 4.48 10 10z" fill="#1475cb"/></g><path d="m334.69 22.81v28.54c0 21.79-17.67 39.46-39.46 39.46h-117.92v-38.54c0-21.8 17.67-39.46 39.46-39.46h107.92c5.52 0 10 4.47 10 10z" fill="#fac574"/><path d="m334.69 22.81v28.54c0 21.79-17.67 39.46-39.46 39.46h-30.34c32.41-24.9 35.11-58.65 33.43-78h26.37c5.52 0 10 4.47 10 10z" fill="#e8b66b"/></g><g><path d="m285.803 134.686c4.143 0 7.5-3.357 7.5-7.5v-.089c0-4.143-3.357-7.456-7.5-7.456s-7.5 3.402-7.5 7.545 3.357 7.5 7.5 7.5z"/><path d="m233.694 127.186v-.089c0-4.143-3.357-7.456-7.5-7.456s-7.5 3.402-7.5 7.545 3.357 7.5 7.5 7.5 7.5-3.358 7.5-7.5z"/><path d="m280.417 155.286c2.29-3.452 1.35-8.106-2.102-10.396s-8.106-1.35-10.396 2.102c-2.663 4.014-7.119 6.409-11.92 6.409-4.802 0-9.257-2.396-11.919-6.408-2.291-3.451-6.946-4.394-10.396-2.104-3.451 2.29-4.394 6.944-2.104 10.396 5.449 8.212 14.577 13.115 24.419 13.115 9.84 0 18.969-4.902 24.418-13.114z"/><path d="m494.5 374.372h-39.347v-12.346c0-6.893-5.607-12.5-12.5-12.5h-11.127v-7.148h11.976c6.893 0 12.5-5.607 12.5-12.5v-11.021c0-19.667-16.001-35.668-35.668-35.668h-27.16c-1.048-36.688-31.198-66.217-68.136-66.217h-36.853v-11.175c21.818-8.818 39.218-26.311 47.918-48.189 1.295.168 2.601.274 3.918.274 16.697 0 30.282-13.585 30.282-30.282 0-15.969-12.428-29.082-28.118-30.196v-74.597c0-9.649-7.851-17.5-17.5-17.5h-19.321c-4.143 0-7.5 3.357-7.5 7.5s3.357 7.5 7.5 7.5h19.321c1.379 0 2.5 1.121 2.5 2.5v28.54c0 17.623-14.337 31.96-31.96 31.96h-110.413v-31.04c0-17.623 14.337-31.96 31.96-31.96h53.197c4.143 0 7.5-3.357 7.5-7.5s-3.357-7.5-7.5-7.5h-53.197c-25.894 0-46.96 21.066-46.96 46.96v45.138c-15.689 1.116-28.115 14.228-28.115 30.196 0 16.697 13.585 30.282 30.282 30.282 1.316 0 2.621-.106 3.915-.274 8.7 21.878 26.1 39.37 47.918 48.189v11.175h-18.14c-.013 0-.027 0-.04 0h-18.673c-37.598 0-68.186 30.588-68.186 68.186v51.03h-48.603c-6.893 0-12.5 5.607-12.5 12.5v25.684h-40.17c-9.649 0-17.5 7.851-17.5 17.5v23.661c0 9.649 7.851 17.5 17.5 17.5h.5v66.16c0 4.143 3.357 7.5 7.5 7.5s7.5-3.357 7.5-7.5v-66.16h64.303c4.143 0 7.5-3.357 7.5-7.5s-3.357-7.5-7.5-7.5h-79.803c-1.379 0-2.5-1.121-2.5-2.5v-23.661c0-1.379 1.121-2.5 2.5-2.5h477c1.379 0 2.5 1.121 2.5 2.5v23.661c0 1.379-1.121 2.5-2.5 2.5h-361.803c-4.143 0-7.5 3.357-7.5 7.5s3.357 7.5 7.5 7.5h346.303v66.16c0 4.143 3.357 7.5 7.5 7.5s7.5-3.357 7.5-7.5v-66.16h.5c9.649 0 17.5-7.851 17.5-17.5v-23.661c0-9.65-7.851-17.501-17.5-17.501zm-54.347 0h-70.53v-9.846h70.53zm-23.627-24.846h-23.276v-7.148h23.276zm24.476-30.669v8.521h-72.229v-8.521c0-11.396 9.272-20.668 20.669-20.668h30.892c11.396 0 20.668 9.272 20.668 20.668zm-62.782-33.848c-14.184 4.715-24.446 18.102-24.446 33.849v11.021c0 6.893 5.607 12.5 12.5 12.5h11.977v7.148h-11.127c-6.893 0-12.5 5.607-12.5 12.5v12.346h-10.647v-138.903c19.955 7.632 34.18 26.946 34.243 49.539zm-129.721-23.602v10.691c-19.368-3.45-34.253-19.997-35.122-40.125h10.492c.822 14.338 11.072 26.185 24.63 29.434zm39.629-29.434h10.492c-.869 20.129-15.753 36.676-35.121 40.125v-10.691c13.558-3.249 23.807-15.096 24.629-29.434zm-32.129 55.798c17.567 0 33.314-7.904 43.9-20.331-.561 3.64-1.238 7.393-2.06 11.219-5.129 23.857-24.808 32.323-40.1 32.323-15.293 0-34.972-8.466-40.101-32.323-.491-2.285-.927-4.542-1.321-6.768 10.347 9.83 24.317 15.88 39.682 15.88zm99.305-160.17c0 8.267-6.602 15.005-14.808 15.258 1.103-5.495 1.69-11.175 1.69-16.99v-13.379c7.402 1.057 13.118 7.42 13.118 15.111zm-198.608 0c0-7.689 5.714-14.052 13.115-15.11v13.379c0 5.815.587 11.494 1.69 16.99-8.204-.256-14.805-6.994-14.805-15.259zm28.116-1.732v-27.562h110.414c12.337 0 23.571-4.789 31.96-12.597v40.159c0 39.253-31.935 71.188-71.188 71.188-39.252 0-71.186-31.935-71.186-71.188zm71.187 86.188c5.884 0 11.631-.596 17.187-1.725v19.78c0 9.478-7.71 17.188-17.187 17.188-9.478 0-17.188-7.71-17.188-17.188v-19.78c5.557 1.128 11.304 1.725 17.188 1.725zm-122.226 73.101c0-22.657 14.247-42.039 34.248-49.688v18.396c0 4.143 3.357 7.5 7.5 7.5s7.5-3.357 7.5-7.5v-21.732c1.302-.096 2.612-.161 3.938-.161h11.089c-.132 10.192.424 28.899 4.927 49.84 6.559 30.513 32.231 44.171 54.765 44.171 22.532 0 48.205-13.658 54.764-44.171 4.502-20.941 5.059-39.648 4.927-49.84h7.608c1.326 0 2.636.065 3.938.161v142.238h-124.307v-25.684c0-6.893-5.607-12.5-12.5-12.5h-9.148v-48.044c0-4.143-3.357-7.5-7.5-7.5s-7.5 3.357-7.5 7.5v48.044h-34.248v-51.03zm-61.103 66.03h117v23.184h-117z"/><path d="m294.1 348.184h19.118c4.143 0 7.5-3.357 7.5-7.5s-3.357-7.5-7.5-7.5h-19.118c-4.143 0-7.5 3.357-7.5 7.5s3.357 7.5 7.5 7.5z"/></g></g></svg>