<svg height="512" viewBox="0 0 512 512" width="512" xmlns="http://www.w3.org/2000/svg"><g id="Filled_outline" data-name="Filled outline"><path d="m372.223 296h-8.446a83.776 83.776 0 0 1 -74.932-46.311 83.769 83.769 0 0 1 -8.845-37.466v-100.223h176v100.223a83.769 83.769 0 0 1 -8.845 37.466 83.776 83.776 0 0 1 -74.932 46.311z" fill="#ffa912"/><path d="m24 456h272v32h-272z" fill="#95573a"/><path d="m104 344h-32v16h8v32h16v-32h8z" fill="#f7a116"/><rect fill="#ffb531" height="32" rx="16" width="128" x="24" y="424"/><path d="m136 424h-96a48 48 0 0 1 96 0z" fill="#ffb531"/><path d="m136 424h-64.23c17.09-8.99 32.34-20.16 45.93-37.71a48.057 48.057 0 0 1 18.3 37.71z" fill="#ffa912"/><path d="m136 424h-22.808c-16.192 14.252-36.213 24.6-54.923 32h77.731a16 16 0 0 0 0-32z" fill="#ffa912"/><path d="m448 280h-48v-64h-64v64h-51.307a48 48 0 0 0 -46.319 35.408l-37.649 138.492a27.842 27.842 0 0 0 53.9 13.91l26.575-73.116c-3.572 18.175 1.861 37.906 14.8 53.306v40h192v-168a40 40 0 0 0 -40-40z" fill="#fec9a3"/><path d="m372.824 256a43.894 43.894 0 0 0 27.176-9.807v-30.193h-64v30.19a43.894 43.894 0 0 0 27.176 9.81z" fill="#feb784"/><path d="m440 112v56a72.006 72.006 0 0 1 -72 72 71.157 71.157 0 0 1 -9.85-.68h-.01a72.006 72.006 0 0 1 -62.14-71.32v-56a64 64 0 0 1 64-64h16c1.53 0 3.05.05 4.56.17a63.969 63.969 0 0 1 59.44 63.83z" fill="#fec9a3"/><path d="m440 112v56a72.006 72.006 0 0 1 -72 72 71.157 71.157 0 0 1 -9.85-.68 88 88 0 0 0 49.85-79.32v-48a87.688 87.688 0 0 0 -25.78-62.22c-.55-.55-1.1-1.08-1.66-1.61a63.983 63.983 0 0 1 59.44 63.83z" fill="#fec093"/><path d="m440 112h8a24 24 0 0 1 24 24 24 24 0 0 1 -24 24h-8a0 0 0 0 1 0 0v-48a0 0 0 0 1 0 0z" fill="#feb784"/><path d="m264 112h8a24 24 0 0 1 24 24 24 24 0 0 1 -24 24h-8a0 0 0 0 1 0 0v-48a0 0 0 0 1 0 0z" fill="#feb784" transform="matrix(-1 0 0 -1 560 272)"/><path d="m440 496v-48a62.085 62.085 0 0 0 0-80v-88h-24v64h-96v-64h-24v88a62.085 62.085 0 0 0 0 80v48" fill="#5f9548"/><path d="m488 320v176h-192v-48c-12.94-15.4-18.37-35.13-14.8-53.31l-26.58 73.12a27.837 27.837 0 0 1 -53.89-13.91l37.64-138.49a48.012 48.012 0 0 1 46.32-35.41h35.31l48 136 48-136h32a40 40 0 0 1 40 40z" fill="#3d4d63"/><path d="m488 328.62v167.38h-192v-8.13c77.58-31.3 140.83-66.31 192-159.25z" fill="#374559"/><path d="m320 280-32 24 40 24-16 16 56 72z" fill="#4c5d72"/><path d="m416 280 32 32-40 16 16 16-56 72z" fill="#4c5d72"/><path d="m392 392h64v32h-64z" fill="#ffb531"/><path d="m392 408h64v16h-64z" fill="#ffa912"/><path d="m200 461.075v-77.075h48l5.77 75.01a26.924 26.924 0 0 1 -26.845 28.99 26.925 26.925 0 0 1 -26.925-26.925z" fill="#4c5d72"/><path d="m218.821 267.3a15.562 15.562 0 0 0 -10.145 22.057l7.324 14.643h-28.669a48 48 0 0 1 -21.466-5.067l-7.972-3.986a9.6 9.6 0 0 0 -13.893 8.586v22.578a16 16 0 0 0 8.845 14.311l13.02 6.511a48 48 0 0 0 21.466 5.067h60.669v-48l-10.955-27.387a15.562 15.562 0 0 0 -18.224-9.313z" fill="#fec9a3"/><path d="m200 352h48v32h-48z" fill="#5f9548"/><path d="m411.54 58.77c-30.01 39.45-78.54 56.87-115.54 64.56v-11.33a64 64 0 0 1 64-64h16c1.53 0 3.05.05 4.56.17a63.682 63.682 0 0 1 30.98 10.6z" fill="#fec093"/><path d="m456 104v8h-16l-32-44.8-8-11.2-10.75 10.75c-25.18 25.18-58.15 41.6-93.25 45.25a52.147 52.147 0 0 1 -5.31.24c-3.54 0-7.11-.24-10.69-.24v-8a80 80 0 0 1 80-80h16a79.589 79.589 0 0 1 16 1.61 78.052 78.052 0 0 1 16 5.06 80.008 80.008 0 0 1 48 73.33z" fill="#ffa912"/><path d="m408 30.67v36.53l-8-11.2-8 8v-38.39a78.052 78.052 0 0 1 16 5.06z" fill="#f7a116"/><circle cx="332" cy="140" r="12"/><circle cx="404" cy="140" r="12"/><path d="m368 184a8.009 8.009 0 0 1 -8-8h-16a24 24 0 0 0 48 0h-16a8.009 8.009 0 0 1 -8 8z"/><path d="m328 432h16v16h-16z"/><path d="m448 272h-6.2a93.358 93.358 0 0 0 12.465-18.723 91.7 91.7 0 0 0 9.735-41.037v-48.54a31.969 31.969 0 0 0 0-55.39v-4.31a88.1 88.1 0 0 0 -88-88h-16a88.1 88.1 0 0 0 -88 88v4.305a31.969 31.969 0 0 0 0 55.39v48.545a91.7 91.7 0 0 0 9.734 41.036 93.365 93.365 0 0 0 12.466 18.724h-9.506a56.155 56.155 0 0 0 -35.716 12.9l-4.5-11.262a23.563 23.563 0 1 0 -42.952 19.289l1.53 3.073h-15.725a40.2 40.2 0 0 1 -17.888-4.223l-7.972-3.986a17.6 17.6 0 0 0 -25.471 15.742v22.578a23.868 23.868 0 0 0 13.267 21.466l13.021 6.511a56.284 56.284 0 0 0 25.043 5.912h4.669v88h-33.376a23.984 23.984 0 0 0 -15.047-30.768 56.1 56.1 0 0 0 -47.577-48.651v-8.581h8v-16h-32v16h8v8.581a56.1 56.1 0 0 0 -47.577 48.651 23.987 23.987 0 0 0 -14.077 33.109 7.972 7.972 0 0 0 -2.346 5.659v32a8 8 0 0 0 8 8h280v-48a8 8 0 0 0 -1.875-5.146c-11.62-13.83-17.357-33.645-14.275-49.31a8 8 0 0 0 -15.341-4.353l-13.348 35.6-3.161-41.1v-79.691a8 8 0 0 0 -.572-2.971l-.083-.206a40.14 40.14 0 0 1 29.348-12.823h11.307l-12.8 9.6a8 8 0 0 0 .684 13.26l31.216 18.728-8.755 8.755a8 8 0 0 0 -.658 10.568l54.313 69.834v77.255h16v-77.255l8-10.286v15.541a8 8 0 0 0 8 8h49.065a56.476 56.476 0 0 1 -7.177 10.839 8 8 0 0 0 -1.888 5.161v48h16v-45.169a72.572 72.572 0 0 0 10.718-19.315 8 8 0 0 0 5.282-7.516v-32a8 8 0 0 0 -4.2-7.042 66.977 66.977 0 0 0 -12.319-22.113l-12.236 10.31a50.847 50.847 0 0 1 6.964 10.845h-39.185l27.291-35.089a8 8 0 0 0 -.658-10.568l-7.421-7.421 28.735-11.494a8 8 0 0 0 2.686-13.085l-18.343-18.343h12.686a32.036 32.036 0 0 1 32 32v176h16v-176a48.055 48.055 0 0 0 -48-48zm-260.669 72a40.2 40.2 0 0 1 -17.888-4.223l-13.021-6.51a7.958 7.958 0 0 1 -4.422-7.156v-22.578a1.534 1.534 0 0 1 .759-1.361 1.526 1.526 0 0 1 1.556-.07l7.973 3.986a56.284 56.284 0 0 0 25.043 5.912h28.669a8 8 0 0 0 7.155-11.578l-7.323-14.648a7.56 7.56 0 0 1 4.929-10.717 7.589 7.589 0 0 1 8.855 4.527l10.384 25.957v38.459zm52.669 16v16h-32v-16zm-152 24a40.071 40.071 0 0 1 39.2 32h-78.4a40.071 40.071 0 0 1 39.2-32zm-48 48h96a8 8 0 0 1 0 16h-96a8 8 0 0 1 0-16zm-8 48v-16h160.132a34.676 34.676 0 0 0 5.463 16zm208.811-6.066a18.731 18.731 0 0 1 -13.886 6.066 18.946 18.946 0 0 1 -18.925-18.925v-69.075h32.592l5.2 67.624a18.727 18.727 0 0 1 -4.981 14.31zm34.571-46.834a83.4 83.4 0 0 0 10.547 20.9h-18.385zm-13.663 36.9h26.261l-.04 16h-31.68a35.092 35.092 0 0 0 5.459-16zm202.281-328a16.019 16.019 0 0 1 -16 16v-32a16.019 16.019 0 0 1 16 16zm-104-104h16a72.081 72.081 0 0 1 72 72h-3.883l-37.607-52.65a8 8 0 0 0 -12.167-1.007l-10.743 10.745a145.436 145.436 0 0 1 -95.6 42.7 72.08 72.08 0 0 1 72-71.788zm72 82.564v53.436a64 64 0 0 1 -128 0v-49.75a161.292 161.292 0 0 0 90.912-45.85l4.067-4.067zm-160 21.436a16.019 16.019 0 0 1 16-16v32a16.019 16.019 0 0 1 -16-16zm16 76.24v-44.24a79.478 79.478 0 0 0 40 69.258v34.742h-10.767a76.479 76.479 0 0 1 -21.208-25.918 75.628 75.628 0 0 1 -8.025-33.842zm14.318 91.022 13.765-10.324 8.32 23.575zm20.332 41.4 8.64-8.639 12.759 36.151zm45.35 47.3-14.1-39.962h28.21zm-19.752-55.962-16.941-48h4.693a8 8 0 0 0 8-8v-35.7a79.7 79.7 0 0 0 48 0v35.7a8 8 0 0 0 8 8h4.693l-16.941 48zm99.752 64v16h-48v-16zm-56.049-27.825 12.759-36.151 8.64 8.639zm19.057-53.994 8.311-23.548 14.445 14.445zm7.759-46.181h-10.767v-34.743a79.482 79.482 0 0 0 40-69.257v44.24a75.623 75.623 0 0 1 -8.026 33.843 76.471 76.471 0 0 1 -21.207 25.917z"/></g></svg>